<?xml version="1.0" encoding="UTF-8" standalone="no"?>
<!-- Created with Inkscape (http://www.inkscape.org/) -->

<svg
   xmlns:dc="http://purl.org/dc/elements/1.1/"
   xmlns:cc="http://creativecommons.org/ns#"
   xmlns:rdf="http://www.w3.org/1999/02/22-rdf-syntax-ns#"
   xmlns:svg="http://www.w3.org/2000/svg"
   xmlns="http://www.w3.org/2000/svg"
   xmlns:sodipodi="http://sodipodi.sourceforge.net/DTD/sodipodi-0.dtd"
   xmlns:inkscape="http://www.inkscape.org/namespaces/inkscape"
   width="90cm"
   height="190cm"
   viewBox="0 0 900 1900"
   version="1.1"
   id="svg8"
   inkscape:version="0.92.3 (d244b95, 2018-08-02)"
   sodipodi:docname="poster.svg"
   inkscape:export-filename="/home/pao/RLadies-BA/Recursos/Poster/poster1.png"
   inkscape:export-xdpi="50.009781"
   inkscape:export-ydpi="50.009781">
  <defs
     id="defs2">
    <linearGradient
       id="SVGID_1_"
       gradientUnits="userSpaceOnUse"
       x1="-438.34351"
       y1="600.55688"
       x2="-437.8866"
       y2="600.09998"
       gradientTransform="matrix(721.094,0,0,-482.937,316122.16,290049.16)">
      <stop
         offset="0"
         style="stop-color:#CACDCF"
         id="stop1368" />
      <stop
         offset="1"
         style="stop-color:#83838B"
         id="stop1370" />
    </linearGradient>
    <linearGradient
       id="SVGID_2_"
       gradientUnits="userSpaceOnUse"
       x1="164.2139"
       y1="183.83321"
       x2="344.43188"
       y2="183.83321">
      <stop
         offset="0"
         style="stop-color:#88398A"
         id="stop1375" />
      <stop
         offset="0.1652"
         style="stop-color:#843786"
         id="stop1377" />
      <stop
         offset="0.3365"
         style="stop-color:#783279"
         id="stop1379" />
      <stop
         offset="0.5105"
         style="stop-color:#632A65"
         id="stop1381" />
      <stop
         offset="0.6864"
         style="stop-color:#471E48"
         id="stop1383" />
      <stop
         offset="0.8621"
         style="stop-color:#220E23"
         id="stop1385" />
      <stop
         offset="1"
         style="stop-color:#000000"
         id="stop1387" />
    </linearGradient>
    <linearGradient
       id="SVGID_1_-1"
       gradientUnits="userSpaceOnUse"
       x1="-438.34351"
       y1="600.55688"
       x2="-437.8866"
       y2="600.09998"
       gradientTransform="matrix(1163.8311,0,0,-779.45053,510342.98,466840.3)">
      <stop
         offset="0"
         style="stop-color:#CACDCF"
         id="stop1368-2" />
      <stop
         offset="1"
         style="stop-color:#83838B"
         id="stop1370-7" />
    </linearGradient>
    <linearGradient
       id="SVGID_2_-0"
       gradientUnits="userSpaceOnUse"
       x1="164.2139"
       y1="183.83321"
       x2="344.43188"
       y2="183.83321"
       gradientTransform="matrix(1.6139797,0,0,1.6139797,128.22687,-1292.9734)">
      <stop
         offset="0"
         style="stop-color:#88398A"
         id="stop1375-9" />
      <stop
         offset="0.1652"
         style="stop-color:#843786"
         id="stop1377-3" />
      <stop
         offset="0.3365"
         style="stop-color:#783279"
         id="stop1379-6" />
      <stop
         offset="0.5105"
         style="stop-color:#632A65"
         id="stop1381-0" />
      <stop
         offset="0.6864"
         style="stop-color:#471E48"
         id="stop1383-6" />
      <stop
         offset="0.8621"
         style="stop-color:#220E23"
         id="stop1385-2" />
      <stop
         offset="1"
         style="stop-color:#000000"
         id="stop1387-6" />
    </linearGradient>
  </defs>
  <sodipodi:namedview
     id="base"
     pagecolor="#ffffff"
     bordercolor="#666666"
     borderopacity="1.0"
     inkscape:pageopacity="0.0"
     inkscape:pageshadow="2"
     inkscape:zoom="0.073996798"
     inkscape:cx="1658.6515"
     inkscape:cy="3522.6841"
     inkscape:document-units="mm"
     inkscape:current-layer="layer1"
     showgrid="false"
     units="cm"
     inkscape:window-width="1317"
     inkscape:window-height="713"
     inkscape:window-x="49"
     inkscape:window-y="27"
     inkscape:window-maximized="1"
     showguides="true"
     inkscape:guide-bbox="true">
    <sodipodi:guide
       position="451.18422,870.33989"
       orientation="1,0"
       id="guide903"
       inkscape:locked="false" />
  </sodipodi:namedview>
  <metadata
     id="metadata5">
    <rdf:RDF>
      <cc:Work
         rdf:about="">
        <dc:format>image/svg+xml</dc:format>
        <dc:type
           rdf:resource="http://purl.org/dc/dcmitype/StillImage" />
        <dc:title></dc:title>
      </cc:Work>
    </rdf:RDF>
  </metadata>
  <g
     inkscape:label="Layer 1"
     inkscape:groupmode="layer"
     id="layer1"
     transform="translate(0,1603)">
    <rect
       style="fill:#ffffff;fill-opacity:1;stroke-width:1.06500006;stroke-miterlimit:4;stroke-dasharray:none"
       id="rect924"
       width="900"
       height="1900"
       x="0"
       y="-1603"
       inkscape:export-xdpi="50.009781"
       inkscape:export-ydpi="50.009781" />
    <path
       sodipodi:type="star"
       style="fill:#800080;fill-opacity:0.79607844;stroke-width:1.06500006;stroke-miterlimit:4;stroke-dasharray:none"
       id="path4549"
       sodipodi:sides="5"
       sodipodi:cx="637.64581"
       sodipodi:cy="-1380.4583"
       sodipodi:r1="357.26587"
       sodipodi:r2="178.63293"
       sodipodi:arg1="1.2467039"
       sodipodi:arg2="1.8750224"
       inkscape:flatsided="true"
       inkscape:rounded="0"
       inkscape:randomized="0"
       d="m 751.41663,-1041.7916 -400.70483,-125.8104 -4.17177,-419.9705 398.12653,-133.7456 250.2275,337.3111 z"
       inkscape:transform-center-x="-1.4661052"
       inkscape:transform-center-y="26.734281"
       transform="matrix(0.764881,0.249591,-0.24294289,0.74729564,22.471812,-763.33812)" />
    <path
       sodipodi:type="star"
       style="fill:#9f005e;fill-opacity:0.90196078;stroke-width:2.5441668;stroke-miterlimit:4;stroke-dasharray:none"
       id="path4553"
       sodipodi:sides="4"
       sodipodi:cx="-18.520832"
       sodipodi:cy="-1573.6042"
       sodipodi:r1="378.81451"
       sodipodi:r2="349.97897"
       sodipodi:arg1="1.122073"
       sodipodi:arg2="1.9074712"
       inkscape:flatsided="true"
       inkscape:rounded="0"
       inkscape:randomized="0"
       d="m 145.81481,-1232.2917 -505.64815,-176.9769 176.97686,-505.6482 505.64816,176.9769 z"
       inkscape:transform-center-y="6.923567e-05"
       inkscape:transform-center-x="1.6556277e-05"
       transform="matrix(1.0402886,0.20996648,-0.20996648,1.0402886,-372.256,68.609954)" />
    <path
       sodipodi:type="star"
       style="fill:#481f49;fill-opacity:0.90980392;stroke-width:1.06500006;stroke-miterlimit:4;stroke-dasharray:none"
       id="path4551"
       sodipodi:sides="8"
       sodipodi:cx="463.02084"
       sodipodi:cy="-1713.8334"
       sodipodi:r1="257.8432"
       sodipodi:r2="208.59953"
       sodipodi:arg1="0.89445282"
       sodipodi:arg2="1.2871519"
       inkscape:flatsided="true"
       inkscape:rounded="0"
       inkscape:randomized="0"
       d="m 624.41667,-1512.75 -189.45913,55.2281 -173.02002,-94.9156 -55.22814,-189.4592 94.91564,-173.02 189.45912,-55.2281 173.02003,94.9156 55.22814,189.4591 z"
       inkscape:transform-center-x="3.5183827"
       inkscape:transform-center-y="-27.852457"
       transform="matrix(1.3159277,0.07230336,-0.07230336,1.3159277,-230.22465,453.03031)" />
    <path
       class="st0"
       d="m 451.18422,-906.41808 c -145.7424,0 -263.8857,-80.37589 -263.8857,-179.47682 0,-99.1033 118.1433,-179.4792 263.8857,-179.4792 145.74234,0 263.88566,80.3759 263.88566,179.4792 -0.16166,99.10093 -118.30467,179.47682 -263.88566,179.47682 z m 40.34947,-288.74782 c -110.71896,0 -200.61769,54.8766 -200.61769,122.6676 0,67.789 89.73732,122.66411 200.61769,122.66411 110.71903,0 192.54778,-37.60577 192.54778,-122.66411 -0.16166,-85.0613 -81.82875,-122.6676 -192.54778,-122.6676 z"
       id="path1373"
       style="fill:url(#SVGID_1_-1);stroke-width:1.6139797"
       inkscape:connector-curvature="0" />
    <path
       class="st1"
       d="m 615.48734,-961.77753 c -4.03496,-4.3579 -9.52247,-7.58545 -12.75045,-9.19954 -9.19966,-4.68059 -25.17809,-9.68387 -25.17809,-9.68387 0,0 78.60083,-5.97198 78.60083,-85.38136 0,-79.4123 -82.15156,-80.8648 -82.15156,-80.8648 H 393.24236 v 301.33611 h 89.89866 v -117.98167 c 0,0 20.65896,0 24.2097,0 5.00334,0 7.10153,1.45243 12.10481,5.48764 5.97174,4.84163 15.65562,21.94992 15.65562,21.94992 l 47.451,90.54411 h 101.51932 l -62.78381,-107.6524 c 0,0 -1.93677,-4.3579 -5.81032,-8.55414 z m -77.14821,-68.59417 H 483.948 v -51.1656 h 54.39113 c 0,0 25.17808,-1.4526 25.17808,25.1795 0,25.825 -25.17808,25.9861 -25.17808,25.9861 z"
       id="path1390"
       style="fill:url(#SVGID_2_-0);stroke-width:1.6139797"
       inkscape:connector-curvature="0" />
    <rect
       x="219.09418"
       y="-825.71985"
       class="st2"
       width="503.88449"
       height="148.97034"
       id="rect1392"
       style="fill:none;stroke-width:1.6139797" />
    <text
       class="st3 st4 st5"
       id="text1394"
       x="219.0603"
       y="-703.13977"
       style="font-size:161.39797974px;font-family:OpenSans;fill:#a7a9ac;stroke-width:1.6139797">Ladies</text>
    <path
       sodipodi:type="star"
       style="fill:#915be4;fill-opacity:0.47058824;stroke-width:1.06500006;stroke-miterlimit:4;stroke-dasharray:none"
       id="path4555"
       sodipodi:sides="3"
       sodipodi:cx="320.14584"
       sodipodi:cy="-1433.375"
       sodipodi:r1="510.54303"
       sodipodi:r2="361.00842"
       sodipodi:arg1="0.7046915"
       sodipodi:arg2="1.7518891"
       inkscape:flatsided="true"
       inkscape:rounded="0"
       inkscape:randomized="0"
       d="m 709.08336,-1102.6458 -869.82615,-159.264 572.83975,-673.6596 z"
       inkscape:transform-center-x="-114.75041"
       inkscape:transform-center-y="-24.280099"
       transform="rotate(-19.918169,-603.51528,-680.21837)" />
    <text
       class="st3 st4 st5"
       id="text1394-3"
       x="228.26021"
       y="-620.71173"
       style="font-size:67.65702057px;font-family:OpenSans;fill:#88398a;fill-opacity:1;stroke-width:1.34580433">BUENOS AIRES</text>
    <path
       sodipodi:type="star"
       style="fill:#800080;fill-opacity:0.79607843;stroke-width:1.06500006;stroke-miterlimit:4;stroke-dasharray:none"
       id="path4549-6"
       sodipodi:sides="5"
       sodipodi:cx="637.64581"
       sodipodi:cy="-1380.4583"
       sodipodi:r1="357.26587"
       sodipodi:r2="178.63293"
       sodipodi:arg1="1.2467039"
       sodipodi:arg2="1.8750224"
       inkscape:flatsided="true"
       inkscape:rounded="0"
       inkscape:randomized="0"
       d="m 751.41663,-1041.7916 -400.70483,-125.8104 -4.17177,-419.9705 398.12653,-133.7456 250.2275,337.3111 z"
       inkscape:transform-center-x="8.5713912"
       inkscape:transform-center-y="15.189081"
       transform="matrix(0.67179737,0.31567466,-0.30758411,0.6564558,93.097912,968.53495)" />
    <path
       sodipodi:type="star"
       style="fill:#9f005e;fill-opacity:0.90196078;stroke-width:2.5441668;stroke-miterlimit:4;stroke-dasharray:none"
       id="path4553-7"
       sodipodi:sides="4"
       sodipodi:cx="-18.520832"
       sodipodi:cy="-1573.6042"
       sodipodi:r1="378.81451"
       sodipodi:r2="349.97897"
       sodipodi:arg1="1.122073"
       sodipodi:arg2="1.9074712"
       inkscape:flatsided="true"
       inkscape:rounded="0"
       inkscape:randomized="0"
       d="m 145.81481,-1232.2917 -505.64815,-176.9769 176.97686,-505.6482 505.64816,176.9769 z"
       inkscape:transform-center-y="6.8179377e-05"
       inkscape:transform-center-x="2.2873669e-05"
       transform="matrix(0.95972982,0.19370691,-0.19370691,0.95972982,-194.60293,1959.6624)" />
    <path
       sodipodi:type="star"
       style="fill:#481f49;fill-opacity:0.90980392;stroke-width:1.06500006;stroke-miterlimit:4;stroke-dasharray:none"
       id="path4551-5"
       sodipodi:sides="8"
       sodipodi:cx="463.02084"
       sodipodi:cy="-1713.8334"
       sodipodi:r1="257.8432"
       sodipodi:r2="208.59953"
       sodipodi:arg1="0.89445282"
       sodipodi:arg2="1.2871519"
       inkscape:flatsided="true"
       inkscape:rounded="0"
       inkscape:randomized="0"
       d="m 624.41667,-1512.75 -189.45913,55.2281 -173.02002,-94.9156 -55.22814,-189.4592 94.91564,-173.02 189.45912,-55.2281 173.02003,94.9156 55.22814,189.4591 z"
       inkscape:transform-center-x="3.2459411"
       inkscape:transform-center-y="-25.695548"
       transform="matrix(1.2140237,0.06670427,-0.06670427,1.2140237,-149.01103,2262.7834)" />
    <path
       sodipodi:type="star"
       style="fill:#915be4;fill-opacity:0.47058824;stroke-width:1.06500006;stroke-miterlimit:4;stroke-dasharray:none"
       id="path4555-3"
       sodipodi:sides="3"
       sodipodi:cx="320.14584"
       sodipodi:cy="-1433.375"
       sodipodi:r1="510.54303"
       sodipodi:r2="361.00842"
       sodipodi:arg1="0.7046915"
       sodipodi:arg2="1.7518891"
       inkscape:flatsided="true"
       inkscape:rounded="0"
       inkscape:randomized="0"
       d="m 709.08336,-1102.6458 -869.82615,-159.264 572.83975,-673.6596 z"
       inkscape:transform-center-x="-105.86427"
       inkscape:transform-center-y="-22.399893"
       transform="matrix(0.86737365,-0.31429601,0.31429601,0.86737365,360.53046,1669.1435)" />
    <g
       id="g4747"
       transform="matrix(0.15157915,0,0,0.15157915,223.48217,-375.12)">
      <g
         id="g4690">
        <g
           id="g4688">
          <path
             id="path4686"
             d="m 612,116.258 c -22.525,9.981 -46.694,16.75 -72.088,19.772 25.929,-15.527 45.777,-40.155 55.184,-69.411 -24.322,14.379 -51.169,24.82 -79.775,30.48 -22.907,-24.437 -55.49,-39.658 -91.63,-39.658 -69.334,0 -125.551,56.217 -125.551,125.513 0,9.828 1.109,19.427 3.251,28.606 -104.326,-5.24 -196.835,-55.223 -258.75,-131.174 -10.823,18.51 -16.98,40.078 -16.98,63.101 0,43.559 22.181,81.993 55.835,104.479 C 60.921,247.278 41.57,241.618 24.629,232.21 v 1.568 c 0,60.806 43.291,111.554 100.693,123.104 -10.517,2.83 -21.607,4.398 -33.08,4.398 -8.107,0 -15.947,-0.803 -23.634,-2.333 15.985,49.907 62.336,86.199 117.253,87.194 -42.947,33.654 -97.099,53.655 -155.916,53.655 -10.134,0 -20.116,-0.612 -29.944,-1.721 55.567,35.681 121.536,56.485 192.438,56.485 230.948,0 357.188,-191.291 357.188,-357.188 l -0.421,-16.253 C 573.872,163.526 595.211,141.422 612,116.258 Z"
             inkscape:connector-curvature="0"
             style="fill:#88398a" />
        </g>
      </g>
      <g
         id="g4692" />
      <g
         id="g4694" />
      <g
         id="g4696" />
      <g
         id="g4698" />
      <g
         id="g4700" />
      <g
         id="g4702" />
      <g
         id="g4704" />
      <g
         id="g4706" />
      <g
         id="g4708" />
      <g
         id="g4710" />
      <g
         id="g4712" />
      <g
         id="g4714" />
      <g
         id="g4716" />
      <g
         id="g4718" />
      <g
         id="g4720" />
    </g>
    <path
       id="path4749"
       d="m 249.80377,-194.12184 c 0.008,9.2644 -6.66326,17.24517 -15.73545,18.81433 -1.14227,0.19605 -2.29574,0.31208 -3.45489,0.30115 -0.39087,-0.008 -0.54437,0.15204 -0.66835,0.51013 -1.81122,5.20015 -5.42573,8.3 -10.88585,9.08173 -3.61206,0.51667 -6.88984,-0.45196 -9.76312,-2.71021 -0.40024,-0.3147 -0.64494,-0.32001 -1.06227,-0.0216 -3.36064,2.40368 -7.12864,3.46818 -11.24333,3.21958 -8.02926,-0.48474 -14.78515,-6.62151 -16.04896,-14.53495 -0.0869,-0.54706 -0.17936,-1.09812 -0.1877,-1.64941 -0.008,-0.45842 -0.1824,-0.63531 -0.6203,-0.72103 -2.43091,-0.47396 -4.63686,-1.47514 -6.58305,-2.99852 -3.58173,-2.80424 -5.73068,-6.46577 -6.23087,-10.99498 -0.57043,-5.18384 1.0307,-9.66596 4.67717,-13.40097 0.29397,-0.29969 0.31229,-0.50836 0.11177,-0.86075 -1.40184,-2.44739 -2.06631,-5.0982 -1.95842,-7.90914 0.26913,-7.01545 5.1509,-12.81151 11.9412,-14.24649 0.7856,-0.16696 1.19744,-0.47496 1.5427,-1.21946 3.34925,-7.2158 8.97285,-11.60428 16.77655,-13.05172 5.47804,-1.01664 10.64583,0.0716 15.44128,2.89241 0.40308,0.23783 0.74061,0.25691 1.17688,0.12988 7.61641,-2.20978 14.36518,-0.60215 20.09463,4.84575 3.38834,3.22104 5.24475,7.29744 5.79441,11.94792 0.12031,1.01664 0.17507,2.04289 0.0977,3.06507 -0.0291,0.38656 0.0898,0.54822 0.45581,0.68363 3.43352,1.27086 5.80112,3.64092 6.83692,7.14656 1.29006,4.36055 0.20642,8.18436 -3.05203,11.36385 -0.28236,0.27599 -0.22271,0.44495 -0.0627,0.72079 1.72205,2.96674 2.61412,6.16008 2.61026,9.59663 z m -33.98487,-1.48752 c 0.003,3.94183 2.53331,7.42586 6.12175,8.60969 1.7984,0.59376 3.65339,0.87553 5.53627,0.95839 1.34422,0.0577 2.68619,-0.0362 3.92821,-0.65493 0.97656,-0.48751 1.43665,-1.29286 1.39246,-2.3659 -0.0442,-1.08019 -0.52787,-1.88801 -1.56102,-2.31796 -0.35911,-0.14919 -0.72372,-0.27076 -1.10501,-0.33693 -1.13963,-0.20336 -2.28474,-0.37456 -3.41866,-0.59931 -1.87148,-0.37278 -2.65627,-1.36334 -2.68111,-3.25581 -0.0218,-1.67404 0.4324,-3.25297 0.94745,-4.81498 0.94215,-2.85925 2.21247,-5.58432 3.42986,-8.33177 1.17524,-2.65321 2.40729,-5.28463 3.23748,-8.07918 0.45723,-1.53454 0.67546,-3.07315 0.25976,-4.66024 -0.63272,-2.40891 -2.07628,-4.02347 -4.56541,-4.48782 -2.27884,-0.42411 -4.54709,-0.47235 -6.60789,0.88676 -0.68524,0.45027 -1.34422,0.34263 -1.93907,-0.18243 -0.45439,-0.39918 -0.88678,-0.82182 -1.3316,-1.232 -2.10212,-1.94072 -4.88136,-2.03597 -7.13821,-0.26368 -0.91059,0.71541 -1.67686,1.6024 -2.66603,2.22386 -0.88393,0.55514 -1.77519,0.71257 -2.75399,0.19059 -0.93238,-0.49736 -1.89774,-0.93508 -2.86066,-1.3715 -0.97533,-0.44057 -1.92013,-0.98471 -3.01802,-1.07734 -3.47261,-0.29562 -7.10666,1.76805 -8.63857,4.90499 -0.67974,1.3882 -1.23469,2.83033 -1.76094,4.28184 -2.42989,6.71022 -4.40906,13.56409 -6.45744,20.39426 -0.91732,3.05692 0.1653,6.06498 2.75377,7.71593 2.01948,1.28702 4.23074,1.60525 6.51995,0.91739 1.85459,-0.55822 2.87023,-2.05106 3.5801,-3.72817 2.35905,-5.56354 4.48357,-11.2215 6.73228,-16.82921 0.61887,-1.54316 1.218,-3.09277 1.87453,-4.61916 0.66284,-1.5413 2.56751,-2.06628 3.69736,-1.04418 0.68972,0.624 0.87152,1.45459 0.80392,2.34259 -0.0743,0.94908 -0.44196,1.82445 -0.78723,2.69613 -1.4631,3.69901 -2.95328,7.38724 -4.4229,11.08331 -0.29702,0.74758 -0.61887,1.48899 -0.75018,2.29127 -0.22495,1.37765 0.32043,2.59865 1.44723,3.08462 1.14959,0.49612 2.34296,0.57899 3.5347,0.14634 1.38676,-0.50258 2.21552,-1.58832 2.85394,-2.84271 2.19354,-4.30769 4.37017,-8.62593 6.56228,-12.93385 1.0126,-1.99019 2.0429,-3.97092 3.07727,-5.94934 0.38435,-0.73326 0.83467,-1.42805 1.55268,-1.88385 0.64819,-0.41026 1.34666,-0.44073 2.01113,-0.0677 0.64839,0.36324 0.69176,1.02649 0.66448,1.68119 -0.0148,0.35193 -0.11339,0.69602 -0.24877,1.02333 -0.2842,0.68079 -0.54966,1.37173 -0.8648,2.03905 -1.82323,3.83558 -3.67415,7.6563 -5.48109,11.50026 -0.76159,1.62226 -1.55432,3.25236 -1.46026,4.95809 z m 25.57411,28.26761 c 0.005,-2.54425 -2.1284,-4.67163 -4.69367,-4.67855 -2.62857,-0.01 -4.76104,2.09398 -4.77244,4.7034 -0.011,2.5508 2.15791,4.71526 4.72277,4.71849 2.6011,0 4.73927,-2.1353 4.74334,-4.74334 z m -79.29451,-38.98922 c 2.47386,0.008 4.55543,-2.06221 4.54566,-4.5139 -0.0112,-2.45569 -2.04839,-4.49189 -4.50149,-4.49882 -2.51416,-0.008 -4.51023,1.98796 -4.50881,4.50598 0.002,2.49154 1.9922,4.50128 4.46464,4.50674 z m 55.39462,-50.4287 c -2.48629,-0.0138 -4.51268,1.97388 -4.52673,4.43796 -0.0151,2.46138 2.0042,4.48374 4.47807,4.48643 2.46409,0 4.44327,-1.97249 4.44774,-4.43819 0.006,-2.47777 -1.95148,-4.47381 -4.39908,-4.4862 z m 36.60632,27.89483 c -0.011,-2.04305 -1.75279,-3.78064 -3.80403,-3.79441 -2.09399,-0.0154 -3.86775,1.75436 -3.85371,3.84412 0.0148,2.08436 1.70578,3.75555 3.80262,3.7584 2.16014,0.008 3.86734,-1.68358 3.85512,-3.80811 z m -78.42849,-10.90942 c 0,1.91871 1.49324,3.42416 3.39932,3.42701 1.93072,0 3.42844,-1.51099 3.42151,-3.4574 -0.007,-1.88794 -1.5028,-3.36469 -3.40217,-3.359 -1.95332,0.008 -3.41764,1.4556 -3.41866,3.38939 z m 35.70855,79.1345 c 0.0165,-1.5981 -1.29841,-2.9142 -2.9146,-2.91997 -1.65895,-0.008 -2.96184,1.28056 -2.95756,2.91727 0.005,1.61456 1.30045,2.89365 2.93028,2.89365 1.62841,0 2.92784,-1.27501 2.94188,-2.89095 z m 45.59587,-45.40637 c -1.55268,-0.0115 -2.89954,1.33564 -2.88712,2.88695 0.0135,1.53293 1.29311,2.7914 2.84274,2.79447 1.62454,0 2.84295,-1.19314 2.84681,-2.79854 0.005,-1.58871 -1.24303,-2.87188 -2.80243,-2.88288 z m -68.1949,-53.54101 c -1.36885,-0.008 -2.42541,1.04003 -2.42541,2.40214 0,1.35364 1.06756,2.40606 2.43518,2.39921 1.32732,-0.008 2.36739,-1.06511 2.36739,-2.40914 2e-4,-1.35642 -1.02358,-2.38529 -2.37716,-2.39221 z m 73.61207,40.63978 c -1.1158,-0.0123 -2.12696,0.9861 -2.14101,2.11738 -0.0151,1.16998 0.95864,2.14369 2.14651,2.14654 1.17973,0.008 2.10498,-0.91308 2.11333,-2.09807 0.0112,-1.19199 -0.92831,-2.15084 -2.11883,-2.16585 z m -84.49507,42.13993 c 0.005,-1.13274 -0.97127,-2.10783 -2.12168,-2.1186 -1.16608,-0.01 -2.12473,0.97101 -2.11638,2.16438 0.01,1.16591 0.95579,2.08691 2.13429,2.07876 1.15633,-0.008 2.0999,-0.95886 2.10377,-2.12454 z"
       inkscape:connector-curvature="0"
       style="fill:#88398a;fill-opacity:1;stroke-width:0.20357658"
       inkscape:transform-center-x="428.25241"
       inkscape:transform-center-y="194.33302" />
    <text
       xml:space="preserve"
       style="font-style:normal;font-variant:normal;font-weight:normal;font-stretch:normal;font-size:50.79999924px;line-height:1.25;font-family:OpenSans;-inkscape-font-specification:OpenSans;letter-spacing:0px;word-spacing:0px;fill:#000000;fill-opacity:1;stroke:none;stroke-width:0.26458332"
       x="323.84512"
       y="-303.2572"
       id="text4761"><tspan
         sodipodi:role="line"
         id="tspan4759"
         x="323.84512"
         y="-303.2572"
         style="font-style:normal;font-variant:normal;font-weight:normal;font-stretch:normal;font-size:50.79999924px;font-family:OpenSans;-inkscape-font-specification:OpenSans;fill:#000000;fill-opacity:1;stroke-width:0.26458332">@RLadiesBA</tspan></text>
    <flowRoot
       xml:space="preserve"
       id="flowRoot877"
       style="fill:black;fill-opacity:1;stroke:none;font-family:sans-serif;font-style:normal;font-weight:normal;font-size:40px;line-height:1.25;letter-spacing:0px;word-spacing:0px"><flowRegion
         id="flowRegion879"><rect
           id="rect881"
           width="142.10527"
           height="63.157894"
           x="1573.6842"
           y="4912.6812" /></flowRegion><flowPara
         id="flowPara883"></flowPara></flowRoot>    <text
       xml:space="preserve"
       style="font-style:normal;font-variant:normal;font-weight:normal;font-stretch:normal;font-size:50.79999924px;line-height:1.25;font-family:OpenSans;-inkscape-font-specification:OpenSans;letter-spacing:0px;word-spacing:0px;fill:#000000;fill-opacity:1;stroke:none;stroke-width:0.26458332"
       x="267.24246"
       y="-185.26579"
       id="text4761-3"><tspan
         sodipodi:role="line"
         id="tspan4759-1"
         x="267.24246"
         y="-185.26579"
         style="font-style:normal;font-variant:normal;font-weight:normal;font-stretch:normal;font-size:50.79999924px;font-family:OpenSans;-inkscape-font-specification:OpenSans;fill:#000000;fill-opacity:1;stroke-width:0.26458332">rladies-buenos-aires</tspan></text>
  </g>
</svg>
